<svg width="38" height="22" viewBox="0 0 38 22" fill="none" xmlns="http://www.w3.org/2000/svg">
<path d="M37.6432 10.2125C38.1188 10.4976 38.1188 11.2104 37.6432 11.4956L23.2802 20.1068C22.5591 20.5392 21.8306 19.5569 22.4173 18.9433L29.6538 11.376C29.9301 11.0871 29.9301 10.6209 29.6538 10.332L22.4173 2.76475C21.8306 2.1512 22.5591 1.1689 23.2802 1.60124L37.6432 10.2125Z" fill="#2D88E2"/>
<path d="M5.27597 2.15248C4.90801 1.88896 4.90801 1.47198 5.27597 1.20846C5.66409 0.930512 6.30932 0.930512 6.69743 1.20846L32.7241 19.8475C33.092 20.111 33.092 20.528 32.7241 20.7915C32.3359 21.0695 31.6907 21.0695 31.3026 20.7915L5.27597 2.15248Z" fill="#D9D9D9"/>
<path d="M0.356678 11.4956C-0.118893 11.2104 -0.118892 10.4976 0.356679 10.2125L14.7197 1.60124C15.4408 1.16891 16.1693 2.15121 15.5826 2.76475L8.34608 10.3321C8.06984 10.6209 8.06984 11.0871 8.34608 11.376L15.5826 18.9433C16.1693 19.5569 15.4408 20.5392 14.7197 20.1068L0.356678 11.4956Z" fill="#2D88E2"/>
</svg>
